<mxfile host="Electron" agent="Mozilla/5.0 (Macintosh; Intel Mac OS X 10_15_7) AppleWebKit/537.36 (KHTML, like Gecko) draw.io/27.0.9 Chrome/134.0.6998.205 Electron/35.4.0 Safari/537.36" version="27.0.9">
  <diagram name="Page-1" id="KBY77vLc_FpnUiFZGR_9">
    <mxGraphModel dx="690" dy="430" grid="1" gridSize="10" guides="1" tooltips="1" connect="1" arrows="1" fold="1" page="1" pageScale="1" pageWidth="413" pageHeight="291" math="1" shadow="0">
      <root>
        <mxCell id="0" />
        <mxCell id="1" parent="0" />
        <mxCell id="628NQ8id-xgE9tLN6gSN-1" value="&lt;div&gt;&lt;span style=&quot;background-color: transparent; color: light-dark(rgb(0, 0, 0), rgb(255, 255, 255));&quot;&gt;Private&lt;/span&gt;&lt;/div&gt;&lt;div&gt;Leaderboard&lt;/div&gt;" style="rounded=0;whiteSpace=wrap;html=1;" parent="1" vertex="1">
          <mxGeometry x="207" y="120" width="83" height="80" as="geometry" />
        </mxCell>
        <mxCell id="Aplv3ah66ThbaObj5vui-1" value="&lt;div&gt;&lt;span style=&quot;background-color: transparent; color: light-dark(rgb(0, 0, 0), rgb(255, 255, 255));&quot;&gt;Public Leaderboard&lt;/span&gt;&lt;/div&gt;" style="rounded=0;whiteSpace=wrap;html=1;" parent="1" vertex="1">
          <mxGeometry x="100" y="120" width="80" height="80" as="geometry" />
        </mxCell>
        <mxCell id="Aplv3ah66ThbaObj5vui-2" value="&lt;div&gt;&lt;span style=&quot;background-color: transparent; color: light-dark(rgb(0, 0, 0), rgb(255, 255, 255));&quot;&gt;Perceived&amp;nbsp;&lt;/span&gt;&lt;/div&gt;&lt;div&gt;State&lt;/div&gt;" style="rounded=1;whiteSpace=wrap;html=1;" parent="1" vertex="1">
          <mxGeometry x="10" y="120" width="70" height="80" as="geometry" />
        </mxCell>
        <mxCell id="Aplv3ah66ThbaObj5vui-4" value="&lt;div&gt;&lt;span style=&quot;background-color: transparent; color: light-dark(rgb(0, 0, 0), rgb(255, 255, 255));&quot;&gt;Equilibrium&lt;/span&gt;&lt;/div&gt;&lt;div&gt;Efforts&lt;/div&gt;" style="rounded=1;whiteSpace=wrap;html=1;" parent="1" vertex="1">
          <mxGeometry x="310" y="50" width="80" height="70" as="geometry" />
        </mxCell>
        <mxCell id="Aplv3ah66ThbaObj5vui-5" value="&lt;div&gt;&lt;span style=&quot;background-color: transparent; color: light-dark(rgb(0, 0, 0), rgb(255, 255, 255));&quot;&gt;Innovation Shock&lt;/span&gt;&lt;/div&gt;" style="rounded=1;whiteSpace=wrap;html=1;" parent="1" vertex="1">
          <mxGeometry x="300" y="160" width="90" height="60" as="geometry" />
        </mxCell>
        <mxCell id="Aplv3ah66ThbaObj5vui-11" value="" style="curved=1;endArrow=classic;html=1;rounded=0;exitX=0;exitY=0.5;exitDx=0;exitDy=0;entryX=0.5;entryY=0;entryDx=0;entryDy=0;" parent="1" source="Aplv3ah66ThbaObj5vui-4" target="628NQ8id-xgE9tLN6gSN-1" edge="1">
          <mxGeometry width="50" height="50" relative="1" as="geometry">
            <mxPoint x="177" y="142" as="sourcePoint" />
            <mxPoint x="227" y="92" as="targetPoint" />
            <Array as="points">
              <mxPoint x="267" y="92" />
              <mxPoint x="247" y="102" />
            </Array>
          </mxGeometry>
        </mxCell>
        <mxCell id="Aplv3ah66ThbaObj5vui-13" value="&lt;div&gt;&lt;span style=&quot;background-color: transparent; color: light-dark(rgb(0, 0, 0), rgb(255, 255, 255));&quot;&gt;Submission Times&lt;/span&gt;&lt;/div&gt;" style="rounded=0;whiteSpace=wrap;html=1;" parent="1" vertex="1">
          <mxGeometry x="138.5" y="30" width="113" height="60" as="geometry" />
        </mxCell>
        <mxCell id="Aplv3ah66ThbaObj5vui-14" value="" style="curved=1;endArrow=classic;html=1;rounded=0;exitX=0.5;exitY=0;exitDx=0;exitDy=0;entryX=1;entryY=0.5;entryDx=0;entryDy=0;" parent="1" source="Aplv3ah66ThbaObj5vui-4" target="Aplv3ah66ThbaObj5vui-13" edge="1">
          <mxGeometry width="50" height="50" relative="1" as="geometry">
            <mxPoint x="177" y="142" as="sourcePoint" />
            <mxPoint x="227" y="92" as="targetPoint" />
            <Array as="points">
              <mxPoint x="327" y="42" />
              <mxPoint x="287" y="42" />
            </Array>
          </mxGeometry>
        </mxCell>
        <mxCell id="Aplv3ah66ThbaObj5vui-16" value="" style="curved=1;endArrow=classic;html=1;rounded=0;exitX=0.372;exitY=0.992;exitDx=0;exitDy=0;entryX=0.806;entryY=0;entryDx=0;entryDy=0;exitPerimeter=0;entryPerimeter=0;" parent="1" source="Aplv3ah66ThbaObj5vui-13" target="Aplv3ah66ThbaObj5vui-1" edge="1">
          <mxGeometry width="50" height="50" relative="1" as="geometry">
            <mxPoint x="177" y="152" as="sourcePoint" />
            <mxPoint x="227" y="102" as="targetPoint" />
            <Array as="points">
              <mxPoint x="187" y="102" />
            </Array>
          </mxGeometry>
        </mxCell>
        <mxCell id="Aplv3ah66ThbaObj5vui-17" value="" style="curved=1;endArrow=classic;html=1;rounded=0;exitX=0.593;exitY=1.008;exitDx=0;exitDy=0;exitPerimeter=0;" parent="1" source="Aplv3ah66ThbaObj5vui-13" edge="1">
          <mxGeometry width="50" height="50" relative="1" as="geometry">
            <mxPoint x="210" y="91" as="sourcePoint" />
            <mxPoint x="220" y="120" as="targetPoint" />
            <Array as="points">
              <mxPoint x="207" y="102" />
            </Array>
          </mxGeometry>
        </mxCell>
        <mxCell id="Aplv3ah66ThbaObj5vui-19" value="&lt;div&gt;&lt;span style=&quot;background-color: transparent; color: light-dark(rgb(0, 0, 0), rgb(255, 255, 255));&quot;&gt;Signal Noise&lt;/span&gt;&lt;/div&gt;" style="rounded=1;whiteSpace=wrap;html=1;" parent="1" vertex="1">
          <mxGeometry x="150" y="210" width="90" height="60" as="geometry" />
        </mxCell>
        <mxCell id="Aplv3ah66ThbaObj5vui-22" value="" style="endArrow=classic;html=1;rounded=0;exitX=0.5;exitY=0;exitDx=0;exitDy=0;" parent="1" source="Aplv3ah66ThbaObj5vui-19" edge="1">
          <mxGeometry width="50" height="50" relative="1" as="geometry">
            <mxPoint x="142" y="222" as="sourcePoint" />
            <mxPoint x="195" y="161" as="targetPoint" />
          </mxGeometry>
        </mxCell>
        <mxCell id="Aplv3ah66ThbaObj5vui-23" value="" style="endArrow=classic;html=1;rounded=0;exitX=0;exitY=0.5;exitDx=0;exitDy=0;entryX=1;entryY=0.5;entryDx=0;entryDy=0;" parent="1" source="628NQ8id-xgE9tLN6gSN-1" target="Aplv3ah66ThbaObj5vui-1" edge="1">
          <mxGeometry width="50" height="50" relative="1" as="geometry">
            <mxPoint x="177" y="142" as="sourcePoint" />
            <mxPoint x="227" y="92" as="targetPoint" />
          </mxGeometry>
        </mxCell>
        <mxCell id="Aplv3ah66ThbaObj5vui-24" value="" style="endArrow=classic;html=1;rounded=0;exitX=0;exitY=0.5;exitDx=0;exitDy=0;entryX=1;entryY=0.5;entryDx=0;entryDy=0;" parent="1" source="Aplv3ah66ThbaObj5vui-1" target="Aplv3ah66ThbaObj5vui-2" edge="1">
          <mxGeometry width="50" height="50" relative="1" as="geometry">
            <mxPoint x="177" y="142" as="sourcePoint" />
            <mxPoint x="227" y="92" as="targetPoint" />
          </mxGeometry>
        </mxCell>
        <mxCell id="Aplv3ah66ThbaObj5vui-25" value="" style="curved=1;endArrow=classic;html=1;rounded=0;exitX=0.5;exitY=0;exitDx=0;exitDy=0;entryX=0.588;entryY=-0.008;entryDx=0;entryDy=0;entryPerimeter=0;" parent="1" source="Aplv3ah66ThbaObj5vui-2" target="Aplv3ah66ThbaObj5vui-4" edge="1">
          <mxGeometry width="50" height="50" relative="1" as="geometry">
            <mxPoint x="177" y="142" as="sourcePoint" />
            <mxPoint x="227" y="92" as="targetPoint" />
            <Array as="points">
              <mxPoint x="60" y="60" />
              <mxPoint x="110" y="20" />
              <mxPoint x="340" y="21" />
            </Array>
          </mxGeometry>
        </mxCell>
        <mxCell id="RGATDhZFEbTinnEdgg3e-1" value="" style="curved=1;endArrow=classic;html=1;rounded=0;exitX=0.31;exitY=0;exitDx=0;exitDy=0;exitPerimeter=0;" parent="1" source="Aplv3ah66ThbaObj5vui-5" edge="1">
          <mxGeometry width="50" height="50" relative="1" as="geometry">
            <mxPoint x="297" y="270" as="sourcePoint" />
            <mxPoint x="280" y="91" as="targetPoint" />
            <Array as="points">
              <mxPoint x="300" y="131" />
            </Array>
          </mxGeometry>
        </mxCell>
      </root>
    </mxGraphModel>
  </diagram>
</mxfile>
